<?xml version="1.0" encoding="UTF-8"?>
<svg width="18px" height="18px" viewBox="0 0 18 18" version="1.1" xmlns="http://www.w3.org/2000/svg" xmlns:xlink="http://www.w3.org/1999/xlink">
    <!-- Generator: Sketch 48.2 (47327) - http://www.bohemiancoding.com/sketch -->
    <title>清空</title>
    <desc>Created with Sketch.</desc>
    <defs></defs>
    <g id="登录" stroke="none" stroke-width="1" fill="none" fill-rule="evenodd" transform="translate(-612.000000, -477.000000)">
        <g id="Group" transform="translate(100.000000, 364.000000)" fill="#AAAAAA" fill-rule="nonzero">
            <path d="M523.029702,121.962638 L529.505048,115.455711 C530.065503,114.893919 530.065503,113.983146 529.505048,113.421353 C528.944557,112.859597 528.035786,112.859597 527.475331,113.421353 L520.999984,119.928244 L514.524674,113.421317 C513.964219,112.859561 513.055447,112.859561 512.494992,113.421317 C511.934537,113.983073 511.934501,114.893883 512.494992,115.455675 L518.970302,121.962601 L512.420368,128.544217 C511.859877,129.106081 511.859877,130.016854 512.420368,130.578611 C512.700596,130.859561 513.067903,131 513.435209,131 C513.802516,131 514.169823,130.859525 514.45005,130.578647 L520.999984,123.996959 L527.549918,130.578647 C527.830182,130.859561 528.197453,131 528.564759,131 C528.932066,131 529.299373,130.859525 529.5796,130.578647 C530.140127,130.016854 530.140127,129.106081 529.579636,128.544253 L523.029702,121.962638 Z" id="清空" transform="translate(521.000000, 122.000000) rotate(-180.000000) translate(-521.000000, -122.000000) "></path>
        </g>
    </g>
</svg>